<svg id="Ebene_1" data-name="Ebene 1" xmlns="http://www.w3.org/2000/svg" viewBox="0 0 1526.05 312"><defs><style>.cls-1{fill:#333;}.cls-2{fill:#00493a;}.cls-3{fill:#6b0013;}.cls-4{fill:none;stroke:#000;stroke-linecap:round;stroke-miterlimit:10;stroke-width:14px;}.cls-5{font-size:176px;font-family:DeadlyAdvance, Deadly Advance;}</style></defs><path class="cls-1" d="M59.11,60.48a13.52,13.52,0,0,0-9.72,9.87C49,71.79,49,85.59,49,183.39c0,99.12.06,111.56.44,113.09A13.67,13.67,0,0,0,58.15,306l1.65.64,66.18.08,66.15.06v41.36h-7.49c-4.11,0-7.9.09-8.42.18a5.64,5.64,0,0,0-3.47,3.59,4.92,4.92,0,0,0,2.81,5.66c1.39.61,115.64.61,117,0a5,5,0,0,0,2.78-5.75,5.6,5.6,0,0,0-3.45-3.5c-.52-.09-4.31-.18-8.41-.18H276V306.75l66.18-.06,66.15-.08L410,306a13.69,13.69,0,0,0,8.76-9.49c.38-1.53.43-14,.43-113.09s-.05-111.57-.43-113.1a13.49,13.49,0,0,0-9.89-9.83c-1.45-.38-22.22-.44-174.94-.41C83.58,60.05,60.47,60.11,59.11,60.48Zm343,122.1L402,288.38H66.16l-.08-105.8L66,76.8H402.13Z" transform="translate(-48.95 -53)"/><path class="cls-2" d="M130.87,111.5a88.41,88.41,0,0,0-8.91,1.07l-1.57.28-.69.12-.2.68c-.34,1.14-1.2,4.28-1.64,6-.23.9-.44,1.64-.45,1.65s-.67.24-1.46.5a61.42,61.42,0,0,0-6.43,2.65l-1.91.93-1.73-1c-2.38-1.41-5.58-3.2-5.71-3.2a44.36,44.36,0,0,0-4.25,2.92,70.55,70.55,0,0,0-15,15.31,32.73,32.73,0,0,0-2.09,3.12c0,.1,2,3.67,3.36,6l.88,1.48-.89,1.8a64.81,64.81,0,0,0-2.73,6.66L79,159.75l-.42.11-2.93.78c-1.39.36-3.07.82-3.75,1l-1.23.35-.07.4a67.63,67.63,0,0,0-1.46,14.73,63.1,63.1,0,0,0,1.08,12.53c.17,1,.34,2,.37,2.18,0,.38.07.39.76.6,1.67.48,2.24.64,4.87,1.33,1.52.4,2.77.74,2.77.75s.23.67.5,1.46a59.48,59.48,0,0,0,2.65,6.44l.93,1.91-.66,1.12c-1.64,2.75-3.58,6.16-3.58,6.31a46.18,46.18,0,0,0,2.86,4.14,68.91,68.91,0,0,0,14.14,14.19,48.3,48.3,0,0,0,4.35,3c.11,0,3.61-2,6-3.36l1.48-.88,1.71.83a58.88,58.88,0,0,0,7.37,3c.71.22.74.24.84.64,1.47,5.56,2.11,7.85,2.19,7.91s3.21.6,4.84.83a68.92,68.92,0,0,0,20.48,0c1.64-.23,4.77-.78,4.85-.83s.7-2.36,1.5-5.37c.43-1.61.79-2.94.8-2.95l1.28-.44a53.86,53.86,0,0,0,6.81-2.8l1.7-.83,1.48.88c2.36,1.38,5.86,3.36,6,3.36a48.5,48.5,0,0,0,4.34-3,69,69,0,0,0,14-14,46.28,46.28,0,0,0,3-4.34c0-.12-1.34-2.53-2.85-5.1-.6-1-1.15-2-1.23-2.11s-.12-.32.43-1.41a63.66,63.66,0,0,0,3.3-8.07c.17-.53.22-.59.55-.67,4.5-1.15,7.73-2.06,7.89-2.21a60.58,60.58,0,0,0,1.3-8.07,71.07,71.07,0,0,0-.94-20.59l-.28-1.53-1.23-.35-3.75-1-2.93-.78-.42-.11-.45-1.35a64.81,64.81,0,0,0-2.73-6.66l-.89-1.8.87-1.48c1.39-2.36,3.36-5.86,3.36-6a46.2,46.2,0,0,0-2.92-4.24,70.06,70.06,0,0,0-14.18-14.18,44.1,44.1,0,0,0-4.24-2.92c-.13,0-3.34,1.79-5.71,3.2l-1.74,1-1.91-.93a60.39,60.39,0,0,0-6.42-2.65c-.8-.26-1.45-.49-1.46-.5s-.33-1.16-.7-2.57a53.65,53.65,0,0,0-1.62-5.66,53.52,53.52,0,0,0-8.09-1.32A74.22,74.22,0,0,0,130.87,111.5ZM137.39,162a15.42,15.42,0,0,1,11.94,10.21,17.26,17.26,0,0,1,0,9.8,15.49,15.49,0,0,1-9.65,9.63,12.26,12.26,0,0,1-4.88.71,12.26,12.26,0,0,1-4.88-.71,15.49,15.49,0,0,1-9.65-9.63,13.54,13.54,0,0,1-.74-4.44,12.64,12.64,0,0,1,.15-3A15.36,15.36,0,0,1,132.13,162,18.18,18.18,0,0,1,137.39,162Z" transform="translate(-48.95 -53)"/><path class="cls-3" d="M323.19,124.61a6.1,6.1,0,0,0-2.84,1.68c-1.34,1.3-1.44,1.59-2.78,7.94-.63,3-2,9.46-3,14.32l-3.71,17.63c-1,4.85-2.29,10.86-2.81,13.38-.89,4.2-2.43,11.55-6.09,28.95-.77,3.63-1.46,7-1.54,7.46a6.31,6.31,0,0,0,2.2,5.63,6.57,6.57,0,0,0,9.33-1c1-1.26.73-.29,3.57-13.79.76-3.69,2-9.73,2.81-13.41s2.05-9.7,2.81-13.38,2.05-9.7,2.82-13.38,2-9.7,2.81-13.37c1.89-9,4.18-19.92,4.41-21a6,6,0,0,0-1.71-5.92,5.88,5.88,0,0,0-2.92-1.68A7.88,7.88,0,0,0,323.19,124.61Z" transform="translate(-48.95 -53)"/><path class="cls-3" d="M274.19,134.42a6.81,6.81,0,0,0-2.44,1c-.31.21-8.4,8-18,17.37-18.95,18.49-17.94,17.43-18.4,19.32a5.78,5.78,0,0,0,0,2.92c.48,1.83-.53.77,18.27,19.18,11.44,11.21,17.67,17.22,18.18,17.54a5.82,5.82,0,0,0,3.81.95,5.88,5.88,0,0,0,3.53-1.19,6.32,6.32,0,0,0,2.37-6.67c-.54-1.77.07-1.12-15.88-16.74l-14.87-14.57,14.77-14.44c8.14-7.94,14.95-14.69,15.16-15a6.64,6.64,0,0,0,.9-4.75A6.52,6.52,0,0,0,274.19,134.42Z" transform="translate(-48.95 -53)"/><path class="cls-3" d="M357.38,134.47a6.53,6.53,0,0,0-4.92,4.84,6.64,6.64,0,0,0,.9,4.75c.21.3,7,7.05,15.16,15l14.77,14.44-14.87,14.57c-15.95,15.62-15.34,15-15.87,16.74a6.29,6.29,0,0,0,2.36,6.67,5.88,5.88,0,0,0,3.53,1.19,5.82,5.82,0,0,0,3.81-.95c.52-.32,6.74-6.33,18.18-17.54,18.8-18.41,17.79-17.35,18.28-19.18a6,6,0,0,0,0-2.92c-.47-1.89.55-.83-18.41-19.32-9.57-9.34-17.69-17.18-18.05-17.41A6.85,6.85,0,0,0,357.38,134.47Z" transform="translate(-48.95 -53)"/><line class="cls-4" x1="401.05" y1="7" x2="401.05" y2="305"/><text class="cls-5" transform="translate(463.05 216.16)">T-800</text></svg>