<svg id="Ebene_1" data-name="Ebene 1" xmlns="http://www.w3.org/2000/svg" viewBox="0 0 1280 1030.1">
    <defs>
        <style>.cls-1{fill:#333;}.cls-2{fill:#00493a;}.cls-3{fill:#6b0013;}</style>
    </defs>
    <path class="cls-1" d="M35.1,1.6A46.69,46.69,0,0,0,1.5,35.7C.2,40.7,0,88.4,0,426.5c0,342.7.2,385.7,1.5,391,4,15.3
    ,14.6,26.8,30.3,32.8l5.7,2.2,228.8.3L495,853V996H469.1c-14.2,0-27.3.3-29.1.6-4.7,1-10.5,7-12,12.4a17,17,0,0,0,9.7,
    19.6c4.8,2.1,399.8,2.1,404.6,0,7.3-3,11.7-12.1,
    9.6-19.9-1.3-5.1-7.3-11.1-11.9-12.1-1.8-.3-14.9-.6-29.1-.6H785V853l228.8-.2,228.7-.3,5.7-2.2c15.7-6,
    26.3-17.5,30.3-32.8,1.3-5.3,1.5-48.3,1.5-391s-.2-385.7-1.5-391c-4.5-17.1-17-29.5-34.2-34C1239.3.2,
    1167.5,0,639.5.1,119.7.1,39.8.3,35.1,1.6ZM1220.8,423.7l-.3,365.8H59.5l-.3-365.8L59,
    58H1221Z" transform="translate(0 -0.08)"/>

    <path class="cls-2" d="M283.19,178a298.71,298.71,0,0,0-30.79,3.7c-1.67.28-4.08.71-5.43.95l-2.38.43-.71,2.34c-1.17,
    3.95-4.12,14.81-5.65,20.74-.81,3.13-1.52,5.68-1.56,5.72s-2.31.81-5,1.74a202.73,202.73,0,0,0-22.23,9.16L202.8,
    226l-6-3.55c-8.21-4.86-19.28-11.08-19.75-11.08s-8.59,5.54-14.66,10.12a243.74,243.74,0,0,0-51.91,52.91c-3.7,
    5.15-7.21,10.37-7.21,10.79s6.92,12.68,11.61,20.6l3,5.11-3.06,6.25a218.93,218.93,0,0,0-9.44,23l-1.56,
    4.69-1.46.35c-.78.22-5.32,1.42-10.12,2.7s-10.62,2.84-13,3.48L75,352.54l-.25,1.38c-4.19,23.3-5,32-5,
    50.92a217.83,217.83,0,0,0,3.73,43.32c.6,3.41,1.17,6.82,1.28,7.53.17,1.31.25,1.35,2.62,2.06,5.79,1.66,
    7.74,2.23,16.83,4.61,5.26,1.39,9.59,2.56,9.59,2.59s.82,2.31,1.74,5.05a208.51,208.51,0,0,0,9.16,22.26l3.2,
    6.6-2.27,3.87c-5.69,9.52-12.36,21.31-12.36,21.84s5.43,8.38,9.87,14.31a238.22,238.22,0,0,0,48.89,49c6.47,
    4.86,14.49,10.44,15,10.44s12.5-6.82,20.63-11.62l5.12-3,5.89,2.84A202.4,202.4,0,0,0,234.18,597c2.45.78,
    2.56.85,2.92,2.24,5.07,19.21,7.28,27.13,7.56,27.34s11.08,2.06,16.72,2.87a238.73,238.73,0,0,0,70.81,
    0c5.68-.81,16.51-2.69,16.75-2.87s2.45-8.17,5.19-18.57c1.49-5.58,2.73-10.16,2.77-10.19s2.06-.71,4.44-1.53a187.86,
    187.86,0,0,0,23.54-9.69l5.89-2.84,5.12,3c8.13,4.8,20.24,11.62,20.63,11.62s8.55-5.58,15-10.41a238.92,238.92,0,0,0,
    48.4-48.39c4.83-6.43,10.4-14.46,10.4-15s-4.65-8.77-9.87-17.65c-2.06-3.51-4-6.78-4.26-7.28-.5-.85-.39-1.13,
    1.49-4.9a223.25,223.25,0,0,0,11.43-27.87c.57-1.84.75-2.06,1.88-2.34,15.56-4,26.74-7.1,27.27-7.64.75-.74,
    3.48-17.68,4.51-27.9,2.38-23.69,
    1.39-45.53-3.26-71.16l-1-5.29-4.26-1.21c-2.35-.64-8.17-2.24-13-3.48s-9.34-2.48-10.12-2.7l-1.46-.35-1.56-4.69a216.9,
    216.9,0,0,0-9.45-23l-3.05-6.25,3-5.11c4.79-8.13,11.61-20.24,11.61-20.63s-5.61-8.66-10.12-14.67a242.83,242.83,0,0,
    0-49-49c-6-4.54-14.13-10.12-14.66-10.12S405,217.54,396.77,222.4l-6,3.55-6.6-3.19a202.73,202.73,0,0,
    0-22.23-9.16c-2.73-.93-5-1.71-5-1.74s-1.14-4-2.42-8.88c-3.51-13.39-5.18-19.14-5.61-19.56-.88-.86-16.61-3.41-27.94-4.58A255,
    255,0,0,0,283.19,178Zm22.54,174.63A53.26,53.26,0,0,1,347,387.9c2,6.11,2.45,9.06,2.45,16.94s-.43,10.83-2.45,
    16.94a53.72,53.72,0,0,1-33.38,33.3c-6.14,2.06-9,2.45-16.87,2.45s-10.72-.39-16.86-2.45a53.72,53.72,0,0,
    1-33.38-33.3A47.74,47.74,0,0,1,244,406.44a42.56,42.56,0,0,1,.54-10.3,53.07,53.07,0,0,1,43-43.5A61.2,61.2,0,0,1,
    305.73,352.61Z" transform="translate(0 -0.08)"/>

    <path class="cls-3" d="M948.1,223.3a20.8,20.8,0,0,0-9.81,5.8c-4.65,4.49-5,5.49-9.64,27.45-2.17,10.46-6.86,
    32.72-10.39,49.5S909,350.23,905.43,367s-7.91,37.57-9.73,46.26c-3.05,14.52-8.4,39.94-21,100.08-2.66,12.58-5,
    24.21-5.31,25.81A21.76,21.76,0,0,0,877,558.6a22.66,22.66,0,0,0,32.23-3.54c3.41-4.37,2.52-1,12.34-47.69,2.65-12.75,
    7.07-33.63,9.73-46.34s7.07-33.55,9.72-46.26,7.08-33.55,9.73-46.25,7.08-33.55,9.73-46.26c6.54-31,14.46-68.87,
    15.26-72.72,1.72-8.17-.27-14.91-5.93-20.49a20.37,20.37,0,0,0-10.08-5.79A27.61,27.61,0,0,0,948.1,
    223.3Z" transform="translate(0 -0.08)"/>

    <path class="cls-3" d="M778.7,257.2a23.82,23.82,0,0,0-8.44,3.32c-1.06.74-29,27.76-62.13,60.05-65.53,63.94-62,
    60.27-63.63,66.79a20.62,20.62,0,0,0,0,10.12c1.68,6.31-1.81,2.64,63.19,66.32,39.53,38.73,61.06,59.53,62.83,60.61,
    4.07,2.63,7.79,3.58,13.18,3.28,5.22-.26,8.14-1.25,12.2-4.11,7.12-5.1,10.62-14.91,
    8.18-23-1.85-6.14.27-3.89-54.87-57.88l-51.43-50.37,51.08-49.93c28.12-27.45,51.69-50.8,
    52.39-51.83a23,23,0,0,0,3.14-16.43C801.92,262.82,790.38,255.25,778.7,257.2Z" transform="translate(0 -0.08)"/>
    <path class="cls-3" d="M1066.3,257.37a22.66,22.66,0,0,0-17,16.73,23,23,0,0,0,3.14,16.43c.71,1,24.28,24.38,52.4,
    51.83l51.07,49.93-51.42,50.37c-55.14,54-53,51.74-54.88,57.88-2.43,8.13,1.06,17.94,8.18,23a20.07,20.07,0,0,0,12.21,
    4.11c5.39.3,9.11-.65,13.18-3.28,1.76-1.08,23.3-21.88,62.83-60.61,65-63.68,61.51-60,63.19-66.32a20.62,20.62,0,0,0,
    0-10.12c-1.6-6.52,1.9-2.85-63.63-66.79-33.08-32.29-61.16-59.4-62.39-60.18A23.71,23.71,0,0,0,1066.3,
    257.37Z" transform="translate(0 -0.08)"/></svg>