<?xml version="1.0" encoding="utf-8"?>
<!-- Generator: Adobe Illustrator 25.0.0, SVG Export Plug-In . SVG Version: 6.00 Build 0)  -->
<svg version="1.1"
	 id="Ebene_1" xmlns:inkscape="http://www.inkscape.org/namespaces/inkscape" xmlns:sodipodi="http://sodipodi.sourceforge.net/DTD/sodipodi-0.dtd" xmlns:svg="http://www.w3.org/2000/svg"
	 xmlns="http://www.w3.org/2000/svg" xmlns:xlink="http://www.w3.org/1999/xlink" x="0px" y="0px" viewBox="0 0 1526.1 312"
	 style="enable-background:new 0 0 1526.1 312;" xml:space="preserve">
<style type="text/css">
	.st0{fill:#333333;}
	.st1{fill:#00493A;}
	.st2{fill:#6B0013;}
</style>
<sodipodi:namedview  bordercolor="#000000" borderopacity="0.25" id="namedview21" inkscape:current-layer="Ebene_1" inkscape:cx="763.02502" inkscape:cy="156.47542" inkscape:deskcolor="#d1d1d1" inkscape:pagecheckerboard="0" inkscape:pageopacity="0.0" inkscape:showpageshadow="2" inkscape:window-height="1001" inkscape:window-maximized="1" inkscape:window-width="1920" inkscape:window-x="-9" inkscape:window-y="-9" inkscape:zoom="0.90429537" pagecolor="#ffffff" showgrid="false" showguides="false">
	</sodipodi:namedview>
<path id="path6" class="st0" d="M10.2,7.5c-4.8,1.3-8.5,5-9.7,9.9C0,18.8,0,32.6,0,130.4C0,229.5,0.1,242,0.5,243.5
	c1.1,4.4,4.4,8,8.7,9.5l1.7,0.6l66.2,0.1l66.2,0.1v41.4h-7.5c-4.1,0-7.9,0.1-8.4,0.2c-1.7,0.6-2.9,1.9-3.5,3.6
	c-0.6,2.3,0.6,4.7,2.8,5.7c1.4,0.6,115.6,0.6,117,0c2.2-1,3.4-3.4,2.8-5.8c-0.5-1.6-1.8-2.9-3.5-3.5c-0.5-0.1-4.3-0.2-8.4-0.2h-7.5
	v-41.4l66.2-0.1l66.1-0.1l1.7-0.6c4.3-1.5,7.6-5.1,8.8-9.5c0.4-1.5,0.4-14,0.4-113.1s0-111.6-0.4-113.1c-1.2-4.9-5-8.6-9.9-9.8
	c-1.5-0.4-22.2-0.4-174.9-0.4C34.6,7,11.5,7.1,10.2,7.5z M353.2,129.6L353,235.4H17.2l-0.1-105.8L17,23.8h336.1L353.2,129.6z"/>
<path id="path8" class="st1" d="M81.9,58.5c-3,0.2-6,0.6-8.9,1.1l-1.6,0.3L70.7,60l-0.2,0.7c-0.3,1.1-1.2,4.3-1.6,6
	c-0.2,0.9-0.4,1.6-0.4,1.7s-0.7,0.2-1.5,0.5c-2.2,0.8-4.3,1.6-6.4,2.7l-1.9,0.9l-1.7-1c-2.4-1.4-5.6-3.2-5.7-3.2
	c-1.5,0.9-2.9,1.9-4.2,2.9c-5.8,4.3-10.8,9.5-15,15.3c-0.8,1-1.5,2-2.1,3.1c0,0.1,2,3.7,3.4,6l0.9,1.5l-0.9,1.8
	c-1,2.2-1.9,4.4-2.7,6.7l-0.4,1.3l-0.4,0.1l-2.9,0.8c-1.4,0.4-3.1,0.8-3.8,1l-1.2,0.4l-0.1,0.4c-1,4.8-1.5,9.8-1.5,14.7
	c-0.1,4.2,0.3,8.4,1.1,12.5c0.2,1,0.3,2,0.4,2.2c0,0.4,0.1,0.4,0.8,0.6c1.7,0.5,2.2,0.6,4.9,1.3c1.5,0.4,2.8,0.7,2.8,0.8
	s0.2,0.7,0.5,1.5c0.8,2.2,1.6,4.3,2.7,6.4l0.9,1.9l-0.7,1.1c-1.6,2.8-3.6,6.2-3.6,6.3c0.9,1.4,1.8,2.8,2.9,4.1
	c4,5.4,8.8,10.2,14.1,14.2c1.4,1.1,2.8,2.1,4.3,3c0.1,0,3.6-2,6-3.4l1.5-0.9l1.7,0.8c2.4,1.2,4.8,2.2,7.4,3c0.7,0.2,0.7,0.2,0.8,0.6
	c1.5,5.6,2.1,7.9,2.2,7.9s3.2,0.6,4.8,0.8c6.8,1,13.7,1,20.5,0c1.6-0.2,4.8-0.8,4.9-0.8s0.7-2.4,1.5-5.4c0.4-1.6,0.8-2.9,0.8-2.9
	l1.3-0.4c2.3-0.8,4.6-1.7,6.8-2.8l1.7-0.8l1.5,0.9c2.4,1.4,5.9,3.4,6,3.4c1.5-0.9,2.9-1.9,4.3-3c5.3-4,10-8.7,14-14
	c1.1-1.4,2.1-2.8,3-4.3c0-0.1-1.3-2.5-2.9-5.1c-0.6-1-1.1-2-1.2-2.1s-0.1-0.3,0.4-1.4c1.3-2.6,2.4-5.3,3.3-8.1
	c0.2-0.5,0.2-0.6,0.6-0.7c4.5-1.1,7.7-2.1,7.9-2.2c0.6-2.7,1-5.4,1.3-8.1c0.7-6.9,0.4-13.8-0.9-20.6l-0.3-1.5l-1.2-0.4l-3.8-1
	l-2.9-0.8l-0.4-0.1l-0.4-1.4c-0.8-2.3-1.7-4.5-2.7-6.7l-0.9-1.8l0.9-1.5c1.4-2.4,3.4-5.9,3.4-6c-0.9-1.5-1.9-2.9-2.9-4.2
	c-4-5.4-8.8-10.2-14.2-14.2c-1.4-1.1-2.8-2-4.2-2.9c-0.1,0-3.3,1.8-5.7,3.2l-1.7,1l-1.9-0.9c-2.1-1-4.2-1.9-6.4-2.7
	c-0.8-0.3-1.4-0.5-1.5-0.5s-0.3-1.2-0.7-2.6c-0.4-1.9-1-3.8-1.6-5.7c-2.7-0.6-5.4-1.1-8.1-1.3C89.3,58.3,85.6,58.3,81.9,58.5z
	 M88.4,109c5.5,1,10.1,4.9,11.9,10.2c0.9,3.2,0.9,6.6,0,9.8c-1.6,4.5-5.1,8.1-9.6,9.6c-1.6,0.6-3.2,0.8-4.9,0.7
	c-1.7,0.1-3.3-0.1-4.9-0.7c-4.5-1.5-8.1-5.1-9.7-9.6c-0.5-1.4-0.7-2.9-0.7-4.4c-0.1-1,0-2,0.1-3c1.1-6.4,6.1-11.4,12.5-12.6
	C84.9,108.7,86.7,108.7,88.4,109z"/>
<path id="path10" class="st2" d="M274.2,71.6c-1.1,0.3-2.1,0.9-2.8,1.7c-1.3,1.3-1.4,1.6-2.8,7.9c-0.6,3-2,9.5-3,14.3l-3.7,17.6
	c-1,4.9-2.3,10.9-2.8,13.4c-0.9,4.2-2.4,11.6-6.1,29c-0.8,3.6-1.5,7-1.5,7.5c-0.3,2.1,0.6,4.2,2.2,5.6c2.8,2.3,6.9,1.9,9.2-0.9
	c0,0,0.1-0.1,0.1-0.1c1-1.3,0.7-0.3,3.6-13.8c0.8-3.7,2-9.7,2.8-13.4s2-9.7,2.8-13.4c0.8-3.7,2-9.7,2.8-13.4s2-9.7,2.8-13.4
	c1.9-9,4.2-19.9,4.4-21c0.6-2.1-0.1-4.4-1.7-5.9c-0.8-0.8-1.8-1.4-2.9-1.7C276.5,71.4,275.4,71.4,274.2,71.6z"/>
<path id="path12" class="st2" d="M225.2,81.4c-0.9,0.2-1.7,0.5-2.4,1c-0.3,0.2-8.4,8-18,17.4c-18.9,18.5-17.9,17.4-18.4,19.3
	c-0.2,1-0.2,2,0,2.9c0.5,1.8-0.5,0.8,18.3,19.2c11.4,11.2,17.7,17.2,18.2,17.5c1.1,0.7,2.5,1.1,3.8,0.9c1.3,0,2.5-0.4,3.5-1.2
	c2.1-1.5,3-4.2,2.4-6.7c-0.5-1.8,0.1-1.1-15.9-16.7l-14.9-14.6l14.8-14.4c8.1-7.9,15-14.7,15.2-15c0.9-1.4,1.2-3.1,0.9-4.8
	C231.8,83,228.6,80.9,225.2,81.4z"/>
<path id="path14" class="st2" d="M308.4,81.5c-2.4,0.5-4.3,2.4-4.9,4.8c-0.3,1.6,0,3.3,0.9,4.8c0.2,0.3,7,7.1,15.2,15l14.8,14.4
	l-14.9,14.6c-16,15.6-15.3,15-15.9,16.7c-0.7,2.5,0.3,5.1,2.4,6.7c1,0.8,2.3,1.2,3.5,1.2c1.3,0.1,2.7-0.2,3.8-0.9
	c0.5-0.3,6.7-6.3,18.2-17.5c18.8-18.4,17.8-17.4,18.3-19.2c0.2-1,0.2-2,0-2.9c-0.5-1.9,0.5-0.8-18.4-19.3
	c-9.6-9.3-17.7-17.2-18-17.4C311.8,81.5,310.1,81.1,308.4,81.5z"/>
<g>
	<g>
		<rect x="478" y="77.2" class="st0" width="20.6" height="162.1"/>
		<rect x="430" y="77.2" class="st0" width="116.5" height="17.3"/>
	</g>
	<rect x="521.3" y="148.7" class="st0" width="57.8" height="17.3"/>
	<g>
		<rect x="602.3" y="77.2" class="st0" width="116.5" height="17.3"/>
		<rect x="601.8" y="148.7" class="st0" width="116.5" height="17.3"/>
		<rect x="601.8" y="221.9" class="st0" width="116.5" height="17.3"/>
		
			<rect x="529.4" y="149.5" transform="matrix(-1.836970e-16 1 -1 -1.836970e-16 768.7089 -452.2734)" class="st0" width="162.1" height="17.3"/>
		
			<rect x="629.1" y="149.5" transform="matrix(-1.836970e-16 1 -1 -1.836970e-16 868.3652 -551.9297)" class="st0" width="162.1" height="17.3"/>
	</g>
	<g>
		
			<rect x="663.1" y="149.5" transform="matrix(-1.836970e-16 1 -1 -1.836970e-16 902.4018 -585.9664)" class="st0" width="162.1" height="17.3"/>
		<rect x="735.5" y="221.9" class="st0" width="116.5" height="17.3"/>
		<rect x="735.5" y="77.2" class="st0" width="116.5" height="17.3"/>
		
			<rect x="762.3" y="149.6" transform="matrix(-1.836970e-16 1 -1 -1.836970e-16 1001.5958 -685.1496)" class="st0" width="162.1" height="17.3"/>
	</g>
	<g>
		<rect x="867" y="221.9" class="st0" width="116.5" height="17.3"/>
		
			<rect x="795.6" y="150.4" transform="matrix(-1.836970e-16 1 -1 -1.836970e-16 1034.8245 -716.5998)" class="st0" width="160.3" height="17.3"/>
		
			<rect x="894.7" y="148.7" transform="matrix(-1.836970e-16 1 -1 -1.836970e-16 1132.2239 -817.5775)" class="st0" width="160.3" height="17.3"/>
		<rect x="867" y="77.2" class="st0" width="116.5" height="17.3"/>
	</g>
</g>
<rect x="393.1" y="28.2" class="st0" width="14" height="255.2"/>
</svg>
