<?xml version="1.0" encoding="UTF-8" standalone="no"?>
<!-- Generator: Adobe Illustrator 25.0.0, SVG Export Plug-In . SVG Version: 6.00 Build 0)  -->

<svg
   version="1.1"
   id="Ebene_1"
   x="0px"
   y="0px"
   viewBox="0 0 1526.1 312"
   style="enable-background:new 0 0 1526.1 312;"
   xml:space="preserve"
   sodipodi:docname="LOGO+Name.svg"
   inkscape:version="1.2.1 (9c6d41e4, 2022-07-14)"
   xmlns:inkscape="http://www.inkscape.org/namespaces/inkscape"
   xmlns:sodipodi="http://sodipodi.sourceforge.net/DTD/sodipodi-0.dtd"
   xmlns="http://www.w3.org/2000/svg"
   xmlns:svg="http://www.w3.org/2000/svg"><defs
   id="defs247" />
<style
   type="text/css"
   id="style194">
	.st0{fill:#333333;}
	.st1{fill:#00493A;}
	.st2{fill:#6B0013;}
</style>
<sodipodi:namedview
   bordercolor="#000000"
   borderopacity="0.25"
   id="namedview21"
   inkscape:current-layer="Ebene_1"
   inkscape:cx="462.99612"
   inkscape:cy="139.39668"
   inkscape:deskcolor="#d1d1d1"
   inkscape:pagecheckerboard="0"
   inkscape:pageopacity="0.0"
   inkscape:showpageshadow="2"
   inkscape:window-height="782"
   inkscape:window-maximized="0"
   inkscape:window-width="1440"
   inkscape:window-x="0"
   inkscape:window-y="25"
   inkscape:zoom="0.90389527"
   pagecolor="#ffffff"
   showgrid="true"
   showguides="false">
	<inkscape:grid
   type="xygrid"
   id="grid407" /></sodipodi:namedview>
<path
   id="path6"
   class="st0"
   d="M10.2,7.5c-4.8,1.3-8.5,5-9.7,9.9C0,18.8,0,32.6,0,130.4C0,229.5,0.1,242,0.5,243.5  c1.1,4.4,4.4,8,8.7,9.5l1.7,0.6l66.2,0.1l66.2,0.1v41.4h-7.5c-4.1,0-7.9,0.1-8.4,0.2c-1.7,0.6-2.9,1.9-3.5,3.6  c-0.6,2.3,0.6,4.7,2.8,5.7c1.4,0.6,115.6,0.6,117,0c2.2-1,3.4-3.4,2.8-5.8c-0.5-1.6-1.8-2.9-3.5-3.5c-0.5-0.1-4.3-0.2-8.4-0.2h-7.5  v-41.4l66.2-0.1l66.1-0.1l1.7-0.6c4.3-1.5,7.6-5.1,8.8-9.5c0.4-1.5,0.4-14,0.4-113.1s0-111.6-0.4-113.1c-1.2-4.9-5-8.6-9.9-9.8  c-1.5-0.4-22.2-0.4-174.9-0.4C34.6,7,11.5,7.1,10.2,7.5z M353.2,129.6L353,235.4H17.2l-0.1-105.8L17,23.8h336.1L353.2,129.6z" />
<path
   id="path8"
   class="st1"
   d="m 102.80805,60.260189 c -2.999998,0.2 -5.999998,0.6 -8.899998,1.1 l -1.6,0.3 -0.7,0.1 -0.2,0.7 c -0.3,1.1 -1.2,4.3 -1.6,6 -0.2,0.9 -0.4,1.6 -0.4,1.7 0,0.1 -0.7,0.2 -1.5,0.5 -2.2,0.8 -4.3,1.6 -6.4,2.7 l -1.9,0.9 -1.7,-1 c -2.4,-1.4 -5.6,-3.2 -5.7,-3.2 -1.5,0.9 -2.9,1.9 -4.2,2.9 -5.8,4.3 -10.8,9.5 -15,15.3 -0.8,1 -1.5,2 -2.1,3.1 0,0.1 2,3.7 3.4,6 l 0.9,1.5 -0.9,1.800001 c -1,2.2 -1.9,4.4 -2.7,6.7 l -0.4,1.3 -0.4,0.1 -2.9,0.8 c -1.4,0.4 -3.1,0.8 -3.8,1 l -1.2,0.4 -0.1,0.4 c -1,4.8 -1.5,9.8 -1.5,14.7 -0.1,4.2 0.3,8.4 1.1,12.5 0.2,1 0.3,2 0.4,2.2 0,0.4 0.1,0.4 0.8,0.6 1.7,0.5 2.2,0.6 4.9,1.3 1.5,0.4 2.8,0.7 2.8,0.8 0,0.1 0.2,0.7 0.5,1.5 0.8,2.2 1.6,4.3 2.7,6.4 l 0.9,1.9 -0.7,1.1 c -1.6,2.8 -3.6,6.2 -3.6,6.3 0.9,1.4 1.8,2.8 2.9,4.1 4,5.4 8.8,10.2 14.1,14.2 1.4,1.1 2.8,2.1 4.3,3 0.1,0 3.6,-2 6,-3.4 l 1.5,-0.9 1.7,0.8 c 2.4,1.2 4.8,2.2 7.4,3 0.7,0.2 0.7,0.2 0.8,0.6 1.5,5.6 2.1,7.9 2.2,7.9 0.1,0 3.2,0.6 4.8,0.8 6.799998,1 13.699998,1 20.499998,0 1.6,-0.2 4.8,-0.8 4.9,-0.8 0.1,0 0.7,-2.4 1.5,-5.4 0.4,-1.6 0.8,-2.9 0.8,-2.9 l 1.3,-0.4 c 2.3,-0.8 4.6,-1.7 6.8,-2.8 l 1.7,-0.8 1.5,0.9 c 2.4,1.4 5.9,3.4 6,3.4 1.5,-0.9 2.9,-1.9 4.3,-3 5.3,-4 10,-8.7 14,-14 1.1,-1.4 2.1,-2.8 3,-4.3 0,-0.1 -1.3,-2.5 -2.9,-5.1 -0.6,-1 -1.1,-2 -1.2,-2.1 -0.1,-0.1 -0.1,-0.3 0.4,-1.4 1.3,-2.6 2.4,-5.3 3.3,-8.1 0.2,-0.5 0.2,-0.6 0.6,-0.7 4.5,-1.1 7.7,-2.1 7.9,-2.2 0.6,-2.7 1,-5.4 1.3,-8.1 0.7,-6.9 0.4,-13.8 -0.9,-20.6 l -0.3,-1.5 -1.2,-0.4 -3.8,-1 -2.9,-0.8 -0.4,-0.1 -0.4,-1.4 c -0.8,-2.3 -1.7,-4.5 -2.7,-6.7 l -0.9,-1.800001 0.9,-1.5 c 1.4,-2.4 3.4,-5.9 3.4,-6 -0.9,-1.5 -1.9,-2.9 -2.9,-4.2 -4,-5.4 -8.8,-10.2 -14.2,-14.2 -1.4,-1.1 -2.8,-2 -4.2,-2.9 -0.1,0 -3.3,1.8 -5.7,3.2 l -1.7,1 -1.9,-0.9 c -2.1,-1 -4.2,-1.9 -6.4,-2.7 -0.8,-0.3 -1.4,-0.5 -1.5,-0.5 -0.1,0 -0.3,-1.2 -0.7,-2.6 -0.4,-1.9 -1,-3.8 -1.6,-5.7 -2.7,-0.6 -5.4,-1.1 -8.1,-1.3 -4.2,-0.3 -7.9,-0.3 -11.6,-0.1 z m 6.5,50.500001 c 5.5,1 10.1,4.9 11.9,10.2 0.9,3.2 0.9,6.6 0,9.8 -1.6,4.5 -5.1,8.1 -9.6,9.6 -1.6,0.6 -3.2,0.8 -4.9,0.7 -1.7,0.1 -3.3,-0.1 -4.9,-0.7 -4.499998,-1.5 -8.099998,-5.1 -9.699998,-9.6 -0.5,-1.4 -0.7,-2.9 -0.7,-4.4 -0.1,-1 0,-2 0.1,-3 1.1,-6.4 6.1,-11.4 12.499998,-12.6 1.8,-0.3 3.6,-0.3 5.3,0 z" />
<path
   id="path10"
   class="st2"
   d="m 263.87868,82.400945 c -1.1,0.3 -2.1,0.9 -2.8,1.7 -1.3,1.3 -1.4,1.6 -2.8,7.9 -0.6,3 -2,9.500005 -3,14.299995 l -3.7,17.6 c -1,4.9 -2.3,10.9 -2.8,13.4 -0.9,4.2 -2.4,11.6 -6.1,29 -0.8,3.6 -1.5,7 -1.5,7.5 -0.3,2.1 0.6,4.2 2.2,5.6 2.8,2.3 6.9,1.9 9.2,-0.9 0,0 0.1,-0.1 0.1,-0.1 1,-1.3 0.7,-0.3 3.6,-13.8 0.8,-3.7 2,-9.7 2.8,-13.4 0.8,-3.7 2,-9.7 2.8,-13.4 0.8,-3.7 2,-9.7 2.8,-13.4 0.8,-3.7 2,-9.7 2.8,-13.4 1.9,-9 4.2,-19.899995 4.4,-20.999995 0.6,-2.1 -0.1,-4.4 -1.7,-5.9 -0.8,-0.8 -1.8,-1.4 -2.9,-1.7 -1.1,-0.2 -2.2,-0.2 -3.4,0 z" />
<path
   id="path12"
   class="st2"
   d="m 224.32862,88.440756 c -0.9,0.2 -1.7,0.5 -2.4,1 -0.3,0.2 -8.4,8 -18,17.400004 -18.9,18.5 -17.9,17.4 -18.4,19.3 -0.2,1 -0.2,2 0,2.9 0.5,1.8 -0.5,0.8 18.3,19.2 11.4,11.2 17.7,17.2 18.2,17.5 1.1,0.7 2.5,1.1 3.8,0.9 1.3,0 2.5,-0.4 3.5,-1.2 2.1,-1.5 3,-4.2 2.4,-6.7 -0.5,-1.8 0.1,-1.1 -15.9,-16.7 l -14.9,-14.6 14.8,-14.4 c 8.1,-7.9 15,-14.700004 15.2,-15.000004 0.9,-1.4 1.2,-3.1 0.9,-4.8 -0.9,-3.2 -4.1,-5.3 -7.5,-4.8 z" /><path
   id="path12-8"
   class="st2"
   d="m 291.12284,88.439837 c 0.84017,0.2 1.58698,0.5 2.24045,1 0.28006,0.2 7.84159,8 16.8034,17.400003 17.64356,18.5 16.71004,17.4 17.1768,19.3 0.18671,1 0.18671,2 0,2.9 -0.46676,1.8 0.46676,0.8 -17.08345,19.2 -10.64215,11.2 -16.52334,17.2 -16.9901,17.5 -1.02688,0.7 -2.33381,1.1 -3.54739,0.9 -1.21357,0 -2.3338,-0.4 -3.26732,-1.2 -1.9604,-1.5 -2.80057,-4.2 -2.24046,-6.7 0.46676,-1.8 -0.0934,-1.1 14.843,-16.7 l 13.90948,-14.6 -13.81612,-14.4 c -7.56153,-7.9 -14.00283,-14.700003 -14.18954,-15.000003 -0.84017,-1.4 -1.12023,-3.1 -0.84017,-4.8 0.84017,-3.2 3.82744,-5.3 7.00142,-4.8 z"
   style="fill:#6b0013;stroke-width:0.966189" />

<g
   id="g242">
	<g
   id="g206">
		<rect
   x="478"
   y="77.2"
   class="st0"
   width="20.6"
   height="162.1"
   id="rect202" />
		<rect
   x="430"
   y="77.2"
   class="st0"
   width="116.5"
   height="17.3"
   id="rect204" />
	</g>
	<rect
   x="521.3"
   y="148.7"
   class="st0"
   width="57.8"
   height="17.3"
   id="rect208" />
	<g
   id="g220">
		<rect
   x="602.3"
   y="77.2"
   class="st0"
   width="116.5"
   height="17.3"
   id="rect210" />
		<rect
   x="601.8"
   y="148.7"
   class="st0"
   width="116.5"
   height="17.3"
   id="rect212" />
		<rect
   x="601.8"
   y="221.9"
   class="st0"
   width="116.5"
   height="17.3"
   id="rect214" />
		
			<rect
   x="529.4"
   y="149.5"
   transform="matrix(-1.836970e-16 1 -1 -1.836970e-16 768.7089 -452.2734)"
   class="st0"
   width="162.1"
   height="17.3"
   id="rect216" />
		
			<rect
   x="629.1"
   y="149.5"
   transform="matrix(-1.836970e-16 1 -1 -1.836970e-16 868.3652 -551.9297)"
   class="st0"
   width="162.1"
   height="17.3"
   id="rect218" />
	</g>
	<g
   id="g230">
		
			<rect
   x="663.1"
   y="149.5"
   transform="matrix(-1.836970e-16 1 -1 -1.836970e-16 902.4018 -585.9664)"
   class="st0"
   width="162.1"
   height="17.3"
   id="rect222" />
		<rect
   x="735.5"
   y="221.9"
   class="st0"
   width="116.5"
   height="17.3"
   id="rect224" />
		<rect
   x="735.5"
   y="77.2"
   class="st0"
   width="116.5"
   height="17.3"
   id="rect226" />
		
			<rect
   x="762.3"
   y="149.6"
   transform="matrix(-1.836970e-16 1 -1 -1.836970e-16 1001.5958 -685.1496)"
   class="st0"
   width="162.1"
   height="17.3"
   id="rect228" />
	</g>
	<g
   id="g240">
		<rect
   x="867"
   y="221.9"
   class="st0"
   width="116.5"
   height="17.3"
   id="rect232" />
		
			<rect
   x="795.6"
   y="150.4"
   transform="matrix(-1.836970e-16 1 -1 -1.836970e-16 1034.8245 -716.5998)"
   class="st0"
   width="160.3"
   height="17.3"
   id="rect234" />
		
			<rect
   x="894.7"
   y="148.7"
   transform="matrix(-1.836970e-16 1 -1 -1.836970e-16 1132.2239 -817.5775)"
   class="st0"
   width="160.3"
   height="17.3"
   id="rect236" />
		<rect
   x="867"
   y="77.2"
   class="st0"
   width="116.5"
   height="17.3"
   id="rect238" />
	</g>
</g>
<rect
   x="394.35547"
   y="7.3917456"
   class="st0"
   width="14"
   height="297.27637"
   id="rect244"
   style="stroke-width:1.07929" />
</svg>
